<svg width="20" height="20" viewBox="0 0 20 20" fill="none" xmlns="http://www.w3.org/2000/svg">
  <rect width="20" height="20" rx="4" fill="#fff"/>
  <path d="M3 5.5A2.5 2.5 0 0 1 5.5 3h9A2.5 2.5 0 0 1 17 5.5v9A2.5 2.5 0 0 1 14.5 17h-9A2.5 2.5 0 0 1 3 14.5v-9Z" fill="#2563eb"/>
  <path d="M5 6.5l5 3.13 5-3.13V6.5a1 1 0 0 0-.06-.44L10 9.13 5.06 6.06A1 1 0 0 0 5 6.5Z" fill="#facc15"/>
  <path d="M15 8.38l-4.47 2.8a1 1 0 0 1-1.06 0L5 8.38V14.5A1.5 1.5 0 0 0 6.5 16h7A1.5 1.5 0 0 0 15 14.5V8.38Z" fill="#fff"/>
</svg> 